<?xml version="1.0" encoding="UTF-8"?>
<svg width="1000px" height="139px" viewBox="0 0 1000 139" xmlns="http://www.w3.org/2000/svg" xmlns:xlink="http://www.w3.org/1999/xlink" version="1.1">
 <!-- Generated by Pixelmator Pro 1.6.4 -->
 <g id="Full-Logo-Small">
  <path id="JS" d="M864.649 129.909 C862.989 129.888 860.806 129.749 859.798 129.6 858.791 129.452 857.093 129.104 856.025 128.826 854.957 128.548 852.927 127.832 851.515 127.234 850.102 126.636 847.959 125.487 846.751 124.679 845.543 123.871 843.573 122.356 842.372 121.311 841.171 120.267 839.464 118.513 838.578 117.415 837.692 116.316 836.253 114.238 835.381 112.796 834.417 111.203 833.709 109.603 833.576 108.716 833.453 107.893 833.513 106.738 833.713 106.067 833.908 105.413 834.543 104.421 835.124 103.863 835.704 103.305 836.707 102.598 837.352 102.294 838.191 101.897 839.041 101.783 840.337 101.89 841.689 102.003 842.497 102.292 843.514 103.026 844.264 103.567 845.702 105.168 846.709 106.584 847.717 107.999 849.629 110.178 850.96 111.424 852.504 112.871 854.247 114.122 855.78 114.881 857.199 115.585 859.281 116.282 860.872 116.585 862.753 116.944 864.436 117.04 866.463 116.905 868.057 116.799 870.35 116.434 871.558 116.094 872.766 115.755 874.682 115.005 875.815 114.428 876.948 113.85 878.611 112.748 879.511 111.978 880.41 111.208 881.801 109.809 882.603 108.869 883.404 107.928 884.557 106.141 885.163 104.897 885.77 103.652 886.52 101.761 886.831 100.694 887.354 98.9 887.402 95.85 887.471 59.964 887.526 32.081 887.65 20.81 887.914 19.882 888.127 19.136 888.848 18.023 889.62 17.248 890.486 16.379 891.468 15.767 892.402 15.514 893.197 15.299 894.558 15.208 895.428 15.311 896.297 15.414 897.548 15.856 898.207 16.293 898.866 16.731 899.749 17.644 900.17 18.323 900.934 19.557 900.934 19.557 901.04 57.863 901.13 90.614 901.075 96.684 900.66 99.724 900.393 101.68 899.783 104.444 899.305 105.866 898.827 107.289 898.001 109.325 897.47 110.392 896.939 111.459 895.727 113.442 894.777 114.799 893.827 116.156 892.043 118.276 890.813 119.511 889.582 120.746 887.503 122.5 886.192 123.409 884.881 124.319 882.794 125.573 881.554 126.198 880.315 126.822 878.187 127.697 876.827 128.143 875.466 128.588 872.849 129.177 871.011 129.451 869.173 129.725 866.31 129.931 864.649 129.909 Z M960.098 129.907 C958.035 129.884 955.259 129.737 953.93 129.579 952.602 129.422 950.209 129.011 948.615 128.665 947.02 128.319 944.447 127.603 942.897 127.074 941.347 126.544 938.52 125.296 936.615 124.3 934.71 123.304 931.781 121.512 930.107 120.319 928.434 119.126 925.883 116.986 924.44 115.564 922.316 113.471 921.737 112.688 921.404 111.455 921.155 110.534 921.079 109.351 921.212 108.464 921.347 107.56 921.827 106.48 922.459 105.656 923.024 104.919 923.991 104.047 924.608 103.717 925.272 103.363 926.393 103.119 927.352 103.119 928.294 103.119 929.397 103.355 929.987 103.684 930.545 103.995 931.92 105.067 933.042 106.065 934.165 107.063 936.244 108.721 937.661 109.749 939.079 110.776 941.833 112.39 943.782 113.335 945.731 114.28 948.655 115.409 950.279 115.844 951.904 116.279 954.858 116.814 956.844 117.035 958.892 117.261 961.866 117.352 963.717 117.244 965.51 117.14 967.993 116.835 969.233 116.568 970.474 116.3 972.323 115.791 973.342 115.435 974.362 115.08 976.246 114.238 977.53 113.563 978.995 112.792 980.731 111.482 982.193 110.043 983.874 108.387 984.813 107.13 985.575 105.515 986.577 103.393 986.63 103.092 986.63 99.563 986.63 96.922 986.465 95.311 986.061 94 985.748 92.985 984.869 91.239 984.107 90.121 983.345 89.002 981.729 87.249 980.515 86.225 979.135 85.06 976.85 83.643 974.415 82.44 972.274 81.383 968.977 80.008 967.089 79.384 965.201 78.761 961.577 77.727 959.035 77.085 956.493 76.444 952.674 75.349 950.548 74.652 948.421 73.955 945.294 72.755 943.597 71.985 941.9 71.214 939.246 69.756 937.697 68.743 936.149 67.731 934.148 66.214 933.25 65.373 932.353 64.531 931.01 63.043 930.268 62.065 929.525 61.087 928.474 59.487 927.932 58.509 927.39 57.531 926.64 55.825 926.266 54.718 925.892 53.611 925.367 51.446 925.1 49.908 924.832 48.369 924.613 45.912 924.613 44.448 924.613 42.983 924.834 40.517 925.103 38.968 925.372 37.419 926.024 35.036 926.552 33.673 927.079 32.309 928.08 30.298 928.774 29.203 929.469 28.107 931.068 26.123 932.327 24.793 933.586 23.463 935.703 21.62 937.032 20.699 938.361 19.777 940.641 18.462 942.1 17.776 943.559 17.09 946.054 16.15 947.646 15.688 949.237 15.225 951.706 14.642 953.132 14.393 954.558 14.143 957.539 13.838 959.756 13.714 962.269 13.574 965.237 13.637 967.638 13.881 969.756 14.096 972.721 14.545 974.227 14.879 975.733 15.213 978.125 15.867 979.543 16.332 980.96 16.797 983.315 17.74 984.775 18.426 986.236 19.113 988.468 20.373 989.736 21.226 991.003 22.079 993.099 23.77 994.394 24.983 995.922 26.415 997.051 27.81 997.61 28.956 998.288 30.346 998.437 31.033 998.308 32.177 998.218 32.976 997.764 34.208 997.298 34.915 996.832 35.621 995.875 36.582 995.171 37.049 994.467 37.517 993.249 37.972 992.465 38.06 991.526 38.166 990.691 38.047 990.019 37.711 989.458 37.43 988.165 36.425 987.145 35.477 986.124 34.53 984.504 33.233 983.544 32.596 982.583 31.959 980.783 30.927 979.543 30.303 978.302 29.678 975.765 28.649 973.905 28.015 972.044 27.38 969.29 26.686 967.784 26.471 966.03 26.221 963.307 26.15 960.213 26.274 956.447 26.425 954.708 26.653 952.339 27.306 950.666 27.767 948.144 28.757 946.734 29.507 945.243 30.301 943.338 31.682 942.177 32.81 940.878 34.074 939.829 35.482 939.168 36.851 938.611 38.007 937.977 40.007 937.762 41.296 937.461 43.092 937.455 44.231 937.737 46.171 937.939 47.563 938.478 49.551 938.936 50.589 939.528 51.933 940.488 53.188 942.27 54.95 944.419 57.075 945.34 57.704 948.788 59.406 950.996 60.495 954.833 62.043 957.313 62.845 959.794 63.647 964.013 64.889 966.69 65.605 969.367 66.321 973.281 67.501 975.389 68.227 977.496 68.953 980.583 70.192 982.249 70.981 983.914 71.769 986.464 73.207 987.914 74.175 989.365 75.143 991.505 76.95 992.67 78.189 993.836 79.429 995.376 81.45 996.092 82.681 996.809 83.913 997.762 86.017 998.211 87.359 998.66 88.7 999.265 91.304 999.556 93.145 999.936 95.549 1000.033 97.539 999.9 100.209 999.789 102.441 999.451 104.856 999.056 106.253 998.693 107.532 998.045 109.375 997.616 110.35 997.187 111.324 996.243 112.996 995.52 114.065 994.796 115.134 993.37 116.915 992.35 118.022 991.331 119.13 989.461 120.806 988.195 121.747 986.93 122.688 984.972 123.966 983.846 124.587 982.719 125.208 980.743 126.153 979.455 126.686 978.166 127.219 975.629 128.022 973.817 128.471 972.005 128.919 969.021 129.435 967.186 129.617 965.351 129.8 962.161 129.93 960.098 129.907 Z" fill="#3f84b3" fill-opacity="1" stroke="none"/>
  <path id="Circulate" d="M228.415 129.752 C225.668 129.826 222.841 129.828 222.133 129.755 221.424 129.682 219.612 129.462 218.106 129.266 216.6 129.069 214.207 128.637 212.79 128.304 211.372 127.972 208.98 127.279 207.474 126.765 205.968 126.25 203.649 125.343 202.32 124.747 200.991 124.152 198.713 122.98 197.258 122.142 195.803 121.304 193.483 119.785 192.103 118.768 190.723 117.75 188.235 115.594 186.574 113.978 184.913 112.361 182.568 109.729 181.363 108.129 180.158 106.529 178.394 103.897 177.443 102.28 176.492 100.662 175.037 97.748 174.21 95.803 173.382 93.857 172.271 90.576 171.74 88.512 171.209 86.447 170.588 83.47 170.359 81.897 170.113 80.207 169.942 75.988 169.942 71.59 169.942 65.236 170.049 63.561 170.672 60.173 171.073 57.99 171.904 54.645 172.517 52.741 173.131 50.836 174.3 47.9 175.116 46.217 175.932 44.532 177.25 42.078 178.046 40.762 178.841 39.446 180.332 37.261 181.36 35.907 182.387 34.553 184.512 32.155 186.082 30.58 187.653 29.005 190.042 26.872 191.391 25.841 192.741 24.81 194.949 23.295 196.297 22.473 197.646 21.652 200.096 20.316 201.743 19.506 203.389 18.695 206.211 17.536 208.014 16.931 209.816 16.325 212.643 15.545 214.296 15.197 215.948 14.849 219.105 14.394 221.31 14.186 223.625 13.966 227.028 13.892 229.364 14.009 231.588 14.12 234.786 14.434 236.469 14.707 238.152 14.979 241.094 15.645 243.006 16.186 244.918 16.726 248.035 17.82 249.932 18.617 251.83 19.413 254.712 20.859 256.336 21.83 258.394 23.06 259.516 23.963 260.039 24.809 260.606 25.726 260.789 26.495 260.789 27.962 260.79 29.496 260.605 30.218 259.904 31.416 259.417 32.248 258.548 33.267 257.972 33.678 257.127 34.283 256.525 34.423 254.832 34.408 252.904 34.39 252.402 34.218 248.495 32.228 246.162 31.04 242.972 29.639 241.408 29.116 239.843 28.592 237.277 27.9 235.706 27.578 233.533 27.132 231.371 26.992 226.685 26.992 222.035 26.992 219.81 27.135 217.622 27.574 216.028 27.895 213.418 28.599 211.823 29.14 210.229 29.681 207.698 30.772 206.199 31.564 204.7 32.357 202.34 33.824 200.955 34.825 199.569 35.826 197.171 37.964 195.626 39.577 194.08 41.189 192.121 43.558 191.272 44.841 190.423 46.125 189.146 48.341 188.436 49.766 187.725 51.191 186.783 53.414 186.344 54.706 185.905 55.998 185.275 58.146 184.944 59.479 184.614 60.813 184.184 63.037 183.989 64.422 183.794 65.807 183.634 69.183 183.634 71.924 183.634 74.666 183.794 78.042 183.989 79.427 184.184 80.812 184.614 83.036 184.944 84.37 185.275 85.703 185.892 87.812 186.317 89.057 186.741 90.301 187.608 92.416 188.243 93.756 188.877 95.096 190.108 97.284 190.976 98.62 191.845 99.955 193.424 102.059 194.484 103.295 195.545 104.532 197.415 106.365 198.641 107.37 199.867 108.374 201.65 109.71 202.604 110.339 203.557 110.968 205.435 112.019 206.776 112.676 208.117 113.332 210.236 114.222 211.485 114.653 212.734 115.085 215.061 115.734 216.656 116.095 218.684 116.553 221.246 116.804 225.177 116.927 229.589 117.065 231.531 116.985 234.198 116.553 236.067 116.251 239.191 115.476 241.14 114.831 243.09 114.186 246.496 112.72 248.711 111.574 252.164 109.787 252.992 109.485 254.513 109.46 255.9 109.437 256.616 109.624 257.791 110.315 258.943 110.992 259.498 111.616 260.164 112.981 260.875 114.439 261.007 115.081 260.889 116.508 260.809 117.467 260.496 118.632 260.193 119.096 259.89 119.561 259.095 120.338 258.426 120.823 257.758 121.309 255.46 122.546 253.32 123.573 251.18 124.599 248.144 125.877 246.573 126.411 245.003 126.946 242.558 127.685 241.14 128.053 239.723 128.421 237.403 128.924 235.986 129.17 234.568 129.415 231.161 129.677 228.415 129.752 Z M410.277 129.908 C408.328 129.893 405.428 129.699 403.834 129.477 402.239 129.255 399.76 128.751 398.324 128.357 396.889 127.963 394.134 126.873 392.203 125.934 390.272 124.996 387.532 123.357 386.115 122.292 384.697 121.228 382.523 119.276 381.282 117.953 380.042 116.631 378.257 114.425 377.315 113.049 376.373 111.674 374.895 109.059 374.031 107.238 373.166 105.417 372.08 102.618 371.618 101.017 371.155 99.417 370.531 96.653 370.231 94.876 369.884 92.827 369.684 89.867 369.684 86.794 369.684 84.127 369.861 80.558 370.078 78.863 370.294 77.167 370.845 74.484 371.302 72.9 371.76 71.317 372.576 68.956 373.116 67.655 373.656 66.353 374.898 63.956 375.876 62.328 376.854 60.7 378.434 58.42 379.385 57.262 380.337 56.104 382.098 54.258 383.298 53.159 384.498 52.06 386.71 50.319 388.213 49.289 389.717 48.259 391.979 46.942 393.241 46.363 394.502 45.784 396.703 44.94 398.131 44.488 399.559 44.035 402.006 43.477 403.569 43.248 405.132 43.019 408.889 42.831 411.917 42.831 415.749 42.831 418.469 43.009 420.866 43.417 422.76 43.739 425.491 44.357 426.935 44.791 428.379 45.225 430.752 46.158 432.208 46.865 433.725 47.602 435.648 48.878 436.712 49.854 437.816 50.866 438.874 52.214 439.32 53.175 439.756 54.114 440.072 55.407 440.074 56.259 440.076 57.144 439.79 58.297 439.352 59.166 438.954 59.957 438.135 60.934 437.533 61.335 436.688 61.899 435.991 62.062 434.472 62.052 433.246 62.043 432.131 61.83 431.508 61.486 430.959 61.182 429.727 60.26 428.77 59.438 427.813 58.615 426.294 57.571 425.396 57.118 424.497 56.665 422.902 56.076 421.852 55.809 420.801 55.541 418.508 55.147 416.756 54.931 414.875 54.7 412.301 54.624 410.474 54.747 408.771 54.861 406.185 55.242 404.728 55.594 403.27 55.945 401.133 56.663 399.979 57.187 398.826 57.712 396.794 58.896 395.464 59.819 394.135 60.741 392.112 62.49 390.969 63.706 389.826 64.922 388.351 66.759 387.691 67.789 387.031 68.819 386.018 70.684 385.44 71.934 384.862 73.184 384.083 75.366 383.709 76.783 383.335 78.2 382.863 80.922 382.66 82.832 382.38 85.465 382.382 87.186 382.67 89.944 382.878 91.945 383.348 94.663 383.713 95.985 384.078 97.306 384.806 99.398 385.331 100.635 385.855 101.871 386.947 103.883 387.757 105.106 388.567 106.329 389.949 108.118 390.827 109.083 391.706 110.047 393.408 111.568 394.611 112.463 395.814 113.357 397.873 114.6 399.188 115.225 400.503 115.85 402.738 116.663 404.156 117.031 405.573 117.399 408.259 117.785 410.123 117.889 411.988 117.993 414.891 117.914 416.574 117.715 418.258 117.516 420.682 116.996 421.962 116.559 423.241 116.122 425.148 115.305 426.199 114.743 427.251 114.181 428.882 113.059 429.825 112.25 430.768 111.441 432.046 110.566 432.665 110.306 433.409 109.993 434.364 109.892 435.482 110.008 436.459 110.109 437.586 110.478 438.149 110.88 438.686 111.264 439.412 112.142 439.762 112.831 440.155 113.603 440.399 114.728 440.399 115.765 440.399 116.963 440.176 117.827 439.621 118.768 439.194 119.495 438.36 120.534 437.769 121.078 437.178 121.622 436.187 122.432 435.567 122.878 434.947 123.325 433.642 124.134 432.668 124.677 431.693 125.22 429.744 126.123 428.337 126.684 426.93 127.245 424.614 128.002 423.19 128.367 421.766 128.732 419.075 129.234 417.211 129.483 415.346 129.732 412.226 129.924 410.277 129.908 Z M622.3 129.918 C620.684 129.9 618.099 129.689 616.555 129.448 615.01 129.206 612.401 128.558 610.756 128.006 609.11 127.455 606.822 126.487 605.67 125.856 604.518 125.225 602.561 123.962 601.321 123.05 600.081 122.138 598.286 120.663 597.333 119.771 596.38 118.88 594.699 116.986 593.598 115.564 592.496 114.142 590.964 111.887 590.193 110.553 589.422 109.22 588.372 107.13 587.859 105.908 587.347 104.687 586.584 102.535 586.164 101.127 585.744 99.719 585.14 97.009 584.823 95.105 584.426 92.722 584.246 89.924 584.246 86.124 584.246 82.257 584.424 79.547 584.839 77.073 585.166 75.13 585.87 72.159 586.405 70.47 586.94 68.781 587.929 66.235 588.603 64.813 589.277 63.39 590.542 61.136 591.414 59.802 592.285 58.469 593.83 56.405 594.846 55.215 595.862 54.025 597.662 52.258 598.846 51.287 600.03 50.317 601.796 48.992 602.771 48.344 603.745 47.696 605.557 46.679 606.798 46.085 608.038 45.491 610.068 44.69 611.308 44.305 612.548 43.92 614.94 43.395 616.624 43.139 618.307 42.883 620.844 42.674 622.262 42.674 623.679 42.674 626.216 42.883 627.899 43.139 629.583 43.395 631.937 43.909 633.131 44.281 634.325 44.652 636.251 45.383 637.41 45.905 638.57 46.428 640.512 47.499 641.726 48.287 642.94 49.075 644.784 50.491 645.823 51.434 646.862 52.377 648.291 53.834 648.997 54.673 649.846 55.68 650.364 56.069 650.523 55.818 650.655 55.609 650.766 53.823 650.768 51.85 650.773 48.665 650.855 48.14 651.498 47.192 651.897 46.605 652.761 45.69 653.418 45.159 654.283 44.46 655.069 44.15 656.263 44.035 657.169 43.947 658.46 44.041 659.131 44.242 659.802 44.444 660.737 44.914 661.209 45.286 661.681 45.659 662.357 46.535 662.712 47.233 663.347 48.482 663.358 49.104 663.343 86.015 663.329 122.135 663.306 123.572 662.72 124.718 662.385 125.373 661.769 126.228 661.351 126.62 660.933 127.012 660.053 127.557 659.397 127.832 658.741 128.107 657.687 128.333 657.055 128.333 656.424 128.333 655.37 128.107 654.714 127.832 654.057 127.557 653.178 127.012 652.76 126.62 652.341 126.228 651.723 125.368 651.386 124.709 650.892 123.741 650.772 122.805 650.768 119.86 650.766 117.853 650.649 116.03 650.51 115.81 650.335 115.533 649.88 115.904 649.042 117.006 648.375 117.885 646.868 119.504 645.695 120.606 644.522 121.707 642.493 123.308 641.187 124.164 639.881 125.019 637.889 126.157 636.761 126.692 635.633 127.226 633.844 127.957 632.785 128.314 631.727 128.672 629.596 129.186 628.05 129.457 626.503 129.727 623.916 129.935 622.3 129.918 Z M783.505 129.785 C780.487 129.878 777.751 129.771 775.773 129.484 774.09 129.239 771.536 128.736 770.099 128.367 768.662 127.997 766.469 127.28 765.225 126.772 763.982 126.264 761.969 125.302 760.751 124.632 759.534 123.963 757.633 122.77 756.527 121.981 755.422 121.192 753.639 119.731 752.566 118.734 751.493 117.737 749.676 115.67 748.529 114.141 747.382 112.613 745.721 109.955 744.838 108.235 743.954 106.515 742.81 103.813 742.294 102.229 741.778 100.646 741.09 97.768 740.765 95.834 740.347 93.348 740.174 90.655 740.174 86.647 740.174 82.717 740.35 79.921 740.746 77.54 741.061 75.651 741.766 72.671 742.312 70.919 742.858 69.166 743.998 66.348 744.845 64.656 745.692 62.964 747.211 60.417 748.221 58.994 749.23 57.572 751.022 55.409 752.203 54.188 753.383 52.967 755.499 51.101 756.905 50.043 758.311 48.985 760.92 47.408 762.704 46.539 764.488 45.67 767.224 44.592 768.784 44.143 770.344 43.694 772.933 43.158 774.537 42.952 776.166 42.742 778.896 42.659 780.721 42.764 782.518 42.867 785.148 43.191 786.566 43.485 787.983 43.779 790.158 44.368 791.398 44.795 792.639 45.221 794.87 46.183 796.357 46.932 797.844 47.68 799.979 48.965 801.103 49.787 802.226 50.609 803.764 51.864 804.52 52.577 805.277 53.289 806.634 54.684 807.535 55.676 808.437 56.667 809.704 58.278 810.351 59.256 810.998 60.233 812.108 62.114 812.818 63.436 813.529 64.758 814.532 67.063 815.048 68.558 815.564 70.054 816.225 72.369 816.517 73.702 816.809 75.036 817.131 77.821 817.233 79.891 817.407 83.435 817.373 83.737 816.65 85.049 816.228 85.815 815.254 86.885 814.486 87.426 813.089 88.41 813.089 88.41 782.934 88.498 766.349 88.546 752.711 88.653 752.629 88.736 752.546 88.819 752.653 90.162 752.867 91.72 753.081 93.278 753.55 95.554 753.91 96.779 754.27 98.003 755.059 100.04 755.665 101.304 756.27 102.569 757.204 104.3 757.74 105.151 758.276 106.002 759.787 107.82 761.098 109.192 762.539 110.699 764.585 112.378 766.273 113.439 767.809 114.403 770.249 115.612 771.695 116.126 773.14 116.639 775.773 117.283 777.545 117.556 779.746 117.895 781.89 117.995 784.311 117.871 786.26 117.771 788.989 117.396 790.376 117.037 791.764 116.679 793.784 115.987 794.866 115.5 795.947 115.013 797.639 114.088 798.626 113.444 799.612 112.801 801.421 111.36 802.645 110.242 803.869 109.123 805.522 107.92 806.318 107.567 807.318 107.122 808.19 106.973 809.145 107.081 809.904 107.167 811.005 107.518 811.592 107.862 812.179 108.206 812.986 108.974 813.385 109.568 813.895 110.328 814.111 111.124 814.111 112.25 814.111 113.13 813.876 114.346 813.59 114.951 813.303 115.557 811.953 117.106 810.588 118.394 809.223 119.682 807.03 121.482 805.713 122.394 804.396 123.306 801.984 124.736 800.353 125.573 798.722 126.409 796.377 127.437 795.14 127.857 793.904 128.276 791.831 128.849 790.534 129.13 789.238 129.411 786.074 129.705 783.505 129.785 Z M491.302 129.584 C489.441 129.562 486.904 129.415 485.664 129.258 484.423 129.101 482.217 128.675 480.762 128.311 479.306 127.947 477.204 127.279 476.09 126.825 474.977 126.372 473.413 125.623 472.616 125.162 471.819 124.701 470.441 123.786 469.555 123.128 468.669 122.47 467.118 121.081 466.108 120.041 465.099 119.001 463.616 117.144 462.814 115.914 462.012 114.684 460.906 112.594 460.356 111.268 459.806 109.942 458.977 107.312 458.514 105.422 457.672 101.987 457.672 101.987 457.552 76.288 457.466 58.058 457.536 50.236 457.79 49.372 457.987 48.702 458.61 47.626 459.175 46.98 459.74 46.334 460.671 45.609 461.244 45.369 461.817 45.129 463.124 44.933 464.149 44.934 465.511 44.935 466.33 45.131 467.195 45.662 467.846 46.061 468.675 46.768 469.038 47.233 469.4 47.699 469.852 48.717 470.043 49.496 470.271 50.43 470.415 59.399 470.465 75.803 470.54 100.318 470.552 100.732 471.248 103.216 471.636 104.603 472.482 106.747 473.129 107.981 473.907 109.467 475.028 110.908 476.447 112.248 477.731 113.461 479.487 114.707 480.83 115.36 482.063 115.96 484.224 116.687 485.633 116.977 487.22 117.303 489.736 117.501 492.245 117.496 494.996 117.491 497.018 117.308 498.55 116.925 499.791 116.616 501.824 115.878 503.068 115.286 504.383 114.662 506.174 113.427 507.343 112.342 508.926 110.871 509.66 109.844 510.789 107.523 511.578 105.901 512.467 103.482 512.763 102.149 513.236 100.025 513.318 96.638 513.423 74.834 513.49 61.144 513.609 49.643 513.689 49.277 513.769 48.911 514.169 48.113 514.578 47.504 514.987 46.895 515.898 46.07 516.601 45.67 517.53 45.142 518.409 44.942 519.813 44.938 521.026 44.935 522.158 45.144 522.851 45.499 523.458 45.81 524.401 46.623 524.945 47.306 525.934 48.548 525.934 48.548 525.934 74.945 525.934 94.855 525.833 101.936 525.523 103.765 525.298 105.099 524.836 107.081 524.498 108.169 524.16 109.258 523.455 111.097 522.932 112.255 522.409 113.412 521.401 115.212 520.693 116.255 519.984 117.297 518.805 118.83 518.072 119.662 517.339 120.493 515.65 121.996 514.32 123.001 512.989 124.006 510.666 125.408 509.158 126.118 507.649 126.827 505.08 127.746 503.449 128.16 501.818 128.575 499.178 129.073 497.584 129.269 495.989 129.464 493.162 129.606 491.302 129.584 Z M283.918 128.32 C283.248 128.313 282.192 128.087 281.572 127.817 280.952 127.548 280.028 126.935 279.519 126.456 279.01 125.977 278.394 125.117 278.15 124.545 277.782 123.681 277.706 117.1 277.706 85.822 277.706 49.483 277.728 48.097 278.316 46.94 278.652 46.28 279.195 45.504 279.524 45.214 279.853 44.924 280.586 44.452 281.153 44.163 281.739 43.866 282.964 43.64 283.988 43.64 285.013 43.64 286.238 43.866 286.823 44.163 287.39 44.452 288.124 44.924 288.452 45.214 288.781 45.504 289.325 46.28 289.661 46.94 290.249 48.097 290.271 49.483 290.271 85.824 290.271 122.231 290.25 123.55 289.658 124.709 289.321 125.368 288.702 126.228 288.284 126.62 287.866 127.012 286.986 127.557 286.33 127.832 285.674 128.107 284.588 128.327 283.918 128.32 Z M326.684 62.227 C328.723 58.469 329.985 56.432 330.804 55.277 331.623 54.121 333.272 52.205 334.469 51.018 335.665 49.831 337.769 48.12 339.142 47.215 340.516 46.31 342.759 45.137 344.126 44.608 345.493 44.079 347.962 43.41 349.611 43.122 351.496 42.792 353.507 42.66 355.026 42.764 356.355 42.856 358.248 43.236 359.234 43.609 360.219 43.982 361.504 44.756 362.089 45.33 362.673 45.903 363.28 46.713 363.438 47.128 363.595 47.544 363.724 48.68 363.724 49.654 363.724 50.779 363.492 51.88 363.087 52.676 362.737 53.365 361.982 54.264 361.41 54.673 360.668 55.202 359.791 55.453 358.361 55.545 356.883 55.639 355.818 55.489 354.321 54.974 353.202 54.589 351.345 54.194 350.193 54.096 348.809 53.978 347.347 54.095 345.881 54.441 344.66 54.729 342.651 55.498 341.415 56.149 340.135 56.824 338.097 58.346 336.676 59.687 335.305 60.981 333.425 63.14 332.499 64.484 331.573 65.829 330.244 68.151 329.546 69.645 328.849 71.138 327.961 73.499 327.575 74.89 326.888 77.362 326.869 77.944 326.765 100.209 326.658 122.999 326.658 122.999 325.829 124.712 325.298 125.811 324.562 126.717 323.779 127.237 322.977 127.77 321.964 128.094 320.831 128.182 319.881 128.255 318.712 128.187 318.232 128.032 317.752 127.876 316.931 127.443 316.407 127.069 315.883 126.695 315.08 125.634 314.622 124.711 313.789 123.034 313.789 123.034 313.789 86.559 313.789 54.314 313.847 49.944 314.289 48.882 314.564 48.221 315.18 47.262 315.658 46.751 316.136 46.241 316.994 45.622 317.564 45.378 318.134 45.133 319.439 44.933 320.463 44.934 321.825 44.935 322.644 45.131 323.51 45.662 324.161 46.061 324.971 46.751 325.311 47.195 325.65 47.64 326.096 48.498 326.302 49.102 326.532 49.779 326.677 52.512 326.68 56.214 L326.684 62.227 Z M557.758 128.325 C557.088 128.322 555.943 128.046 555.214 127.714 554.485 127.382 553.514 126.619 553.058 126.018 552.602 125.418 552.064 124.275 551.864 123.478 551.597 122.42 551.527 107.343 551.603 67.537 551.707 13.045 551.707 13.045 552.572 11.734 553.047 11.013 553.943 10.109 554.563 9.725 555.183 9.34 556.424 8.939 557.321 8.832 558.46 8.697 559.373 8.8 560.349 9.174 561.117 9.468 562.125 10.107 562.589 10.592 563.053 11.078 563.657 12.016 563.933 12.677 564.378 13.748 564.432 19.834 564.426 68.439 564.419 120.856 564.395 123.05 563.822 124.292 563.494 125.003 562.809 125.977 562.299 126.457 561.789 126.936 560.833 127.554 560.175 127.831 559.516 128.107 558.429 128.329 557.758 128.325 Z M694.561 57.216 C683.982 57.203 682.958 57.114 681.825 56.598 681.095 56.266 680.092 55.458 679.594 54.804 678.94 53.943 678.65 53.133 678.546 51.874 678.467 50.917 678.492 49.775 678.602 49.336 678.711 48.897 679.194 48.07 679.674 47.498 680.154 46.925 681.133 46.19 681.849 45.863 682.953 45.36 684.018 45.269 688.85 45.263 L694.55 45.256 694.649 36.423 C694.749 27.589 694.749 27.589 695.613 26.28 696.176 25.427 697.069 24.674 698.173 24.122 699.106 23.656 700.417 23.274 701.088 23.274 701.758 23.274 702.87 23.501 703.558 23.777 704.247 24.053 705.184 24.672 705.642 25.151 706.099 25.63 706.699 26.563 706.974 27.224 707.383 28.206 707.474 29.964 707.474 36.841 L707.474 45.256 715.427 45.256 C722.766 45.256 723.483 45.306 724.734 45.914 725.478 46.276 726.479 47.138 726.957 47.83 727.435 48.522 727.906 49.689 728.004 50.424 728.103 51.159 728.014 52.327 727.807 53.019 727.6 53.711 727.073 54.705 726.636 55.227 726.198 55.748 725.257 56.41 724.544 56.696 723.475 57.125 721.858 57.216 715.352 57.216 L707.457 57.216 707.546 84.289 C707.634 110.945 707.646 111.384 708.306 112.816 708.676 113.616 709.498 114.729 710.133 115.289 710.856 115.926 711.908 116.441 712.942 116.663 713.85 116.859 715.003 117.019 715.504 117.019 716.004 117.019 717.03 116.8 717.784 116.534 718.537 116.267 719.849 116.049 720.699 116.049 721.882 116.049 722.471 116.24 723.212 116.866 723.745 117.316 724.428 118.333 724.73 119.126 725.087 120.064 725.216 121.036 725.101 121.903 724.997 122.68 724.539 123.712 724.003 124.377 723.497 125.004 722.362 125.925 721.48 126.424 720.599 126.923 719.013 127.556 717.957 127.832 716.888 128.111 714.889 128.314 713.447 128.29 712.023 128.267 709.915 128.136 708.763 127.999 707.611 127.862 705.908 127.459 704.979 127.103 704.05 126.748 702.653 126.082 701.875 125.625 701.098 125.168 699.827 124.085 699.051 123.22 698.276 122.355 697.258 120.86 696.789 119.898 696.321 118.937 695.677 117.277 695.359 116.21 694.826 114.422 694.772 112.054 694.671 85.744 L694.561 57.216 Z M625 117.833 C627.038 117.755 629.57 117.454 630.626 117.165 631.683 116.876 633.473 116.218 634.604 115.704 635.735 115.189 637.566 114.119 638.673 113.327 639.781 112.534 641.687 110.805 642.911 109.485 644.134 108.166 645.756 106.039 646.514 104.759 647.272 103.48 648.251 101.532 648.689 100.432 649.128 99.332 649.771 97.432 650.118 96.209 650.466 94.987 650.923 92.201 651.134 90.017 651.427 86.987 651.43 85.176 651.147 82.379 650.943 80.363 650.422 77.423 649.989 75.847 649.557 74.27 648.543 71.652 647.736 70.028 646.929 68.404 645.434 65.991 644.412 64.665 643.391 63.34 641.613 61.48 640.463 60.533 639.312 59.585 637.065 58.166 635.47 57.378 633.876 56.59 631.629 55.728 630.477 55.462 629.325 55.197 627.22 54.883 625.799 54.765 624.3 54.64 622.008 54.711 620.338 54.934 618.755 55.145 616.451 55.672 615.218 56.104 613.985 56.536 612.166 57.345 611.176 57.901 610.185 58.457 608.412 59.688 607.235 60.636 606.058 61.584 604.24 63.498 603.196 64.889 602.152 66.28 600.693 68.658 599.955 70.174 599.217 71.69 598.229 74.377 597.76 76.145 597.089 78.669 596.868 80.4 596.728 84.208 596.616 87.272 596.695 90.068 596.943 91.802 597.158 93.312 597.597 95.494 597.918 96.651 598.239 97.808 598.879 99.652 599.341 100.75 599.802 101.847 600.63 103.51 601.179 104.445 601.729 105.38 602.816 106.976 603.595 107.992 604.374 109.008 605.699 110.447 606.539 111.189 607.379 111.93 609.033 113.182 610.215 113.971 611.397 114.759 613.359 115.784 614.574 116.248 615.79 116.712 617.8 117.29 619.04 117.533 620.491 117.817 622.617 117.924 625 117.833 Z M803.885 77.258 C803.55 74.127 803.087 72.098 802.64 70.731 802.194 69.363 801.272 67.381 800.592 66.326 799.913 65.271 798.527 63.575 797.512 62.557 796.498 61.539 794.78 60.123 793.694 59.41 792.609 58.697 790.778 57.683 789.626 57.157 788.475 56.63 786.372 55.92 784.955 55.579 783.249 55.168 781.213 54.957 778.935 54.956 777.042 54.955 774.488 55.166 773.26 55.425 772.032 55.684 770.064 56.26 768.886 56.705 767.708 57.15 765.767 58.15 764.574 58.928 763.38 59.706 761.461 61.356 760.309 62.595 759.158 63.833 757.669 65.784 757.001 66.931 756.333 68.077 755.367 70.106 754.855 71.44 754.342 72.773 753.784 74.628 753.616 75.561 753.31 77.258 753.31 77.258 778.597 77.258 L803.885 77.258 Z M284.36 32.543 C282.674 32.606 281.203 32.471 280.252 32.165 279.438 31.903 278.405 31.399 277.957 31.046 277.51 30.693 276.908 29.905 276.619 29.295 276.248 28.51 276.095 27.279 276.095 25.074 276.095 23.19 276.267 21.548 276.531 20.915 276.77 20.34 277.486 19.412 278.122 18.852 278.905 18.162 279.883 17.707 281.15 17.443 282.194 17.225 283.971 17.132 285.168 17.233 286.361 17.333 287.887 17.707 288.604 18.074 289.314 18.437 290.233 19.21 290.646 19.792 291.306 20.72 291.411 21.295 291.506 24.48 291.605 27.794 291.549 28.23 290.862 29.473 290.335 30.427 289.641 31.077 288.548 31.64 287.341 32.263 286.393 32.467 284.36 32.543 Z" fill="#484e57" fill-opacity="1" stroke="none"/>
  <g id="Main-Logo">
   <path id="Outer-Circle" d="M138.584 69.5 C138.584 31.116 107.572 0 69.318 0 31.064 0 0.053 31.116 0.053 69.5 0.053 107.884 31.064 139 69.318 139 107.572 139 138.584 107.884 138.584 69.5 Z" fill="#6eb3e2" fill-opacity="1" stroke="none"/>
   <path id="Middle-Circle" d="M128.733 77.377 C128.733 49.655 106.336 27.182 78.708 27.182 51.079 27.182 28.682 49.655 28.682 77.377 28.682 105.098 51.079 127.571 78.708 127.571 106.336 127.571 128.733 105.098 128.733 77.377 Z" fill="#3f84b3" fill-opacity="1" stroke="none"/>
   <path id="Inner-Circle" d="M118.309 84.553 C118.309 67.493 104.526 53.664 87.524 53.664 70.522 53.664 56.739 67.493 56.739 84.553 56.739 101.612 70.522 115.442 87.524 115.442 104.526 115.442 118.309 101.612 118.309 84.553 Z" fill="#484e57" fill-opacity="1" stroke="none"/>
  </g>
 </g>
</svg>
